<?xml version="1.0" encoding="utf-8"?>
<svg xmlns="http://www.w3.org/2000/svg" viewBox="0 0 327.6 154.49"><title>Science-Clinic-Private-Tutoring-Logo-Master-new</title><g id="Layer_2" data-name="Layer 2"><g id="Layer_1-2" data-name="Layer 1"><path d="M116.23,19.11h-7.35l-1.27-6.72A13,13,0,0,0,103.88,11a21.88,21.88,0,0,0-5.21-.6,10,10,0,0,0-6.22,1.69,5.28,5.28,0,0,0-2.2,4.38,4.77,4.77,0,0,0,2.3,4.08,31.6,31.6,0,0,0,7.94,3.38q8.08,2.25,12.27,5.94a12.31,12.31,0,0,1,4.18,9.7,11.62,11.62,0,0,1-5,9.91q-5,3.63-13.09,3.62a28.46,28.46,0,0,1-10.5-1.84,21.48,21.48,0,0,1-7.8-5.11V35.93h7.58l1,7a12,12,0,0,0,4,2,19.17,19.17,0,0,0,5.66.78c2.68,0,4.72-.54,6.12-1.64a5.3,5.3,0,0,0,2.1-4.4,5.64,5.64,0,0,0-2-4.53q-2-1.71-7-3.23-8.68-2.5-13.16-6a11.32,11.32,0,0,1-4.46-9.47,11.63,11.63,0,0,1,5-9.72A21,21,0,0,1,98.17,2.82a29.43,29.43,0,0,1,10.27,1.71,23.69,23.69,0,0,1,7.79,4.57Z" style="fill:#35899a"/><path d="M138.09,45.56a5.81,5.81,0,0,0,4.2-1.52A5.43,5.43,0,0,0,143.87,40h8.86l.1.2a11.33,11.33,0,0,1-4.13,9.22,15.59,15.59,0,0,1-10.61,3.7q-8.11,0-12.52-5.13t-4.4-13.2v-1q0-8,4.52-13.2t12.87-5.17a22.13,22.13,0,0,1,7.89,1.31,15.49,15.49,0,0,1,5.81,3.69l.14,9.7h-8l-1.61-5.67A6.41,6.41,0,0,0,141,23.35a6.66,6.66,0,0,0-2.45-.42q-4.16,0-5.87,3A15.69,15.69,0,0,0,131,33.75v1a16.75,16.75,0,0,0,1.57,7.84Q134.13,45.56,138.09,45.56Z" style="fill:#35899a"/><path d="M157,46.5l4.74-1V23l-5.24-1V16.05h15V45.5l4.7,1v5.88H157ZM171.5,7.35h-9.8V0h9.8Z" style="fill:#35899a"/><path d="M196.82,53.08q-7.86,0-12.56-5a18,18,0,0,1-4.7-12.79V33.91q0-8.08,4.45-13.33A14.78,14.78,0,0,1,196,15.38q7.35,0,11.41,4.43t4.06,12v5.34H189.73l-.06.2a9.52,9.52,0,0,0,2.4,5.91,7.49,7.49,0,0,0,5.79,2.31,18.83,18.83,0,0,0,5.41-.65,25.17,25.17,0,0,0,4.7-2.07l2.65,6a19.5,19.5,0,0,1-5.83,3A24.93,24.93,0,0,1,196.82,53.08ZM196,22.93a5.12,5.12,0,0,0-4.3,2.08,10.93,10.93,0,0,0-2,5.48l.1.17h12v-.88a7.87,7.87,0,0,0-1.46-5A5.23,5.23,0,0,0,196,22.93Z" style="fill:#35899a"/><path d="M215.52,46.5l4.7-1V23L215,22V16.05h14.33l.44,5.2a13.37,13.37,0,0,1,4.47-4.33,11.56,11.56,0,0,1,5.94-1.54q5.51,0,8.6,3.46t3.08,10.84V45.5l4.71,1v5.88H237.85V46.5l4.2-1V29.72c0-2.44-.5-4.17-1.48-5.19A6,6,0,0,0,236.1,23a7.53,7.53,0,0,0-3.49.79A7.18,7.18,0,0,0,230,26V45.5l4,1v5.88H215.52Z" style="fill:#35899a"/><path d="M276.43,45.56a5.82,5.82,0,0,0,4.2-1.52A5.42,5.42,0,0,0,282.2,40h8.87l.1.2A11.36,11.36,0,0,1,287,49.38a15.59,15.59,0,0,1-10.61,3.7q-8.13,0-12.53-5.13t-4.39-13.2v-1q0-8,4.51-13.2t12.88-5.17a22.21,22.21,0,0,1,7.89,1.31,15.57,15.57,0,0,1,5.81,3.69l.13,9.7h-8l-1.61-5.67a6.22,6.22,0,0,0-1.81-1.06,6.69,6.69,0,0,0-2.45-.42q-4.17,0-5.88,3a15.69,15.69,0,0,0-1.71,7.79v1a16.74,16.74,0,0,0,1.58,7.84Q272.47,45.56,276.43,45.56Z" style="fill:#35899a"/><path d="M313,53.08q-7.85,0-12.55-5a18,18,0,0,1-4.7-12.79V33.91q0-8.08,4.45-13.33a14.76,14.76,0,0,1,11.93-5.2q7.35,0,11.42,4.43t4.06,12v5.34H305.91l-.07.2a9.52,9.52,0,0,0,2.4,5.91,7.51,7.51,0,0,0,5.8,2.31,18.71,18.71,0,0,0,5.4-.65,25.17,25.17,0,0,0,4.7-2.07l2.65,6a19.56,19.56,0,0,1-5.82,3A25,25,0,0,1,313,53.08Zm-.87-30.15a5.14,5.14,0,0,0-4.3,2.08,10.83,10.83,0,0,0-1.94,5.48l.1.17h12v-.88a7.87,7.87,0,0,0-1.46-5A5.26,5.26,0,0,0,312.12,22.93Z" style="fill:#35899a"/><path d="M180.45,79.87h-7.29l-1-6.51a10.2,10.2,0,0,0-3.65-2.29,14.46,14.46,0,0,0-5.18-.84,11.52,11.52,0,0,0-9.83,4.64q-3.44,4.63-3.44,12.09v1.71q0,7.45,3.43,12.12a11.29,11.29,0,0,0,9.67,4.67,16,16,0,0,0,5.29-.84,8.81,8.81,0,0,0,3.71-2.29l1-6.51h7.29v9.67a21.11,21.11,0,0,1-7.54,5.46,25.09,25.09,0,0,1-10.26,2,20.9,20.9,0,0,1-16.11-6.82q-6.28-6.81-6.28-17.49V87q0-10.63,6.24-17.49a20.86,20.86,0,0,1,16.15-6.85,24.49,24.49,0,0,1,10.24,2.07,21.81,21.81,0,0,1,7.56,5.45Z" style="fill:#35899a"/><path d="M184.14,65.8V59.89h15.05v45.5l4.73,1v5.87H184.65V106.4l4.73-1V66.81Z" style="fill:#35899a"/><path d="M206.81,106.4l4.73-1V82.86l-5.24-1V75.94h15v29.45l4.7,1v5.87H206.81Zm14.54-39.15h-9.81V59.89h9.81Z" style="fill:#35899a"/><path d="M228.73,106.4l4.7-1V82.86l-5.2-1V75.94h14.34l.43,5.21a13.28,13.28,0,0,1,4.47-4.33,11.6,11.6,0,0,1,5.94-1.55q5.5,0,8.6,3.46t3.09,10.84v15.82l4.7,1v5.87H251.06V106.4l4.2-1V89.61q0-3.66-1.48-5.19a5.92,5.92,0,0,0-4.46-1.53,7.67,7.67,0,0,0-3.5.79,7.11,7.11,0,0,0-2.58,2.24v19.47l4,1v5.87H228.73Z" style="fill:#35899a"/><path d="M272.62,106.4l4.73-1V82.86l-5.24-1V75.94h15.05v29.45l4.7,1v5.87H272.62Zm14.54-39.15h-9.81V59.89h9.81Z" style="fill:#35899a"/><path d="M312.14,105.46a5.76,5.76,0,0,0,4.19-1.53,5.39,5.39,0,0,0,1.58-4.08h8.87l.1.2a11.36,11.36,0,0,1-4.13,9.22A15.62,15.62,0,0,1,312.14,113q-8.13,0-12.53-5.14t-4.4-13.2v-1q0-8,4.52-13.2t12.88-5.17a22.43,22.43,0,0,1,7.89,1.31,15.57,15.57,0,0,1,5.81,3.69l.13,9.71h-8l-1.61-5.68a6.34,6.34,0,0,0-1.81-1,6.69,6.69,0,0,0-2.45-.42c-2.78,0-4.74,1-5.88,3A15.69,15.69,0,0,0,305,93.64v1a16.62,16.62,0,0,0,1.58,7.84Q308.17,105.47,312.14,105.46Z" style="fill:#35899a"/><path d="M79,115.6l-37.87,1.51,5.62,14.65c7,18.28,73.94-7.38,66.93-25.67l-5.61-14.61Z" style="fill:#8bd0e0"/><path d="M62.73,116.25l-21.58.86,5.62,14.65h0c.07.18.15.35.23.52a1,1,0,0,0,.07.15c.06.13.14.27.21.4l.06.1c.09.16.19.31.3.47l.07.1.27.35.1.12c.12.14.24.28.37.41l0,0,.38.35.11.11.38.3.07.06c.15.12.31.23.47.34l.12.07c.13.09.27.17.41.25l.12.08.54.28.07,0,.5.23.15.06.55.22,0,0c.2.07.41.15.63.21l.15.05.53.16.14,0,.68.17.1,0c.2,0,.41.09.62.12l.16,0c.49.08,1,.15,1.49.21l.17,0,.68.07h.11l.81.05h.12l.73,0h2l.84,0h.05l.92-.05h.12l.84-.07h.13c.63,0,1.26-.12,1.91-.2l.15,0c.65-.08,1.31-.18,2-.29l.12,0,.92-.15.1,0,1-.19h0Z" style="fill:#5eafb5"/><polygon points="61.12 68.93 1.16 118.7 79.02 115.6 138.99 65.84 61.12 68.93" style="fill:#35899a"/><polygon points="61.12 68.93 138.99 65.84 137.82 62.81 59.96 65.91 0 115.67 1.16 118.7 61.12 68.93" style="fill:#39929e"/><path d="M71,89.28a1.71,1.71,0,0,0-2.43-.16L39.84,114.39a1.65,1.65,0,0,0-.54.91,1.36,1.36,0,0,0,0,.89l11.5,30a3.72,3.72,0,0,0-1,4.08l.7,1.85a3.73,3.73,0,1,0,7-2.68l-.7-1.84a3.74,3.74,0,0,0-3.44-2.39L42.46,116.67l28.35-25A1.72,1.72,0,0,0,71,89.28Z" style="fill:#c6c6c6"/><path d="M145.35,126.53a4.86,4.86,0,0,1,3.35,1.09,4,4,0,0,1,0,5.71,4.91,4.91,0,0,1-3.35,1.08h-2.09v2.75l1.32.25v1.49h-5.12v-1.49l1.32-.25v-8.88l-1.32-.25v-1.5h5.89Zm-2.09,6h2.09a2.05,2.05,0,0,0,1.56-.56,2,2,0,0,0,.53-1.44,2.08,2.08,0,0,0-.53-1.48,2,2,0,0,0-1.56-.58h-2.09Z" style="fill:#5eafb5;stroke:#5eafb5;stroke-linecap:round;stroke-linejoin:round;stroke-width:0.5545014142990112px"/><path d="M157.5,126.53a5.16,5.16,0,0,1,3.31,1,3.24,3.24,0,0,1,1.2,2.67,2.71,2.71,0,0,1-.5,1.62,3.54,3.54,0,0,1-1.47,1.11,2.69,2.69,0,0,1,1.57,1.08,3.38,3.38,0,0,1,.48,1.86v.63a1.13,1.13,0,0,0,.16.63.74.74,0,0,0,.54.27l.3,0v1.5h-1.28a2,2,0,0,1-1.71-.66,2.78,2.78,0,0,1-.49-1.69v-.7a2,2,0,0,0-.48-1.42,1.86,1.86,0,0,0-1.35-.54h-2v3.27l1.32.25v1.49H152v-1.49l1.32-.25v-8.88L152,128v-1.5h5.55ZM155.75,132h1.71a2.34,2.34,0,0,0,1.56-.44,1.59,1.59,0,0,0,.52-1.27,1.77,1.77,0,0,0-.52-1.33,2.11,2.11,0,0,0-1.52-.5h-1.75Z" style="fill:#5eafb5;stroke:#5eafb5;stroke-linecap:round;stroke-linejoin:round;stroke-width:0.5545014142990112px"/><path d="M165.14,128v-1.5h5.12V128l-1.33.25v8.88l1.33.25v1.49h-5.12v-1.49l1.32-.25v-8.88Z" style="fill:#5eafb5;stroke:#5eafb5;stroke-linecap:round;stroke-linejoin:round;stroke-width:0.5545014142990112px"/><path d="M176.77,128l-.94.16,2.19,7.42.15.68h.05l.15-.66,2.19-7.44-.93-.16v-1.5h4.52V128l-1,.13-3.64,10.74h-2.55l-3.65-10.74-1-.13v-1.5h4.52Z" style="fill:#5eafb5;stroke:#5eafb5;stroke-linecap:round;stroke-linejoin:round;stroke-width:0.5545014142990112px"/><path d="M184.14,137.41l.89-.13,3.76-10.75h2.54l3.74,10.75.88.13v1.49h-4.21v-1.49l.86-.15-.55-1.7h-4l-.54,1.7.86.15v1.49h-4.22Zm4.49-3.68h2.84l-1.4-4.35h0Z" style="fill:#5eafb5;stroke:#5eafb5;stroke-linecap:round;stroke-linejoin:round;stroke-width:0.5545014142990112px"/><path d="M207.62,126.53v3.3h-1.91l-.1-1.39h-2.27v8.72l1.32.25v1.49h-5.13v-1.49l1.33-.25v-8.72h-2.27l-.1,1.39h-1.9v-3.3Z" style="fill:#5eafb5;stroke:#5eafb5;stroke-linecap:round;stroke-linejoin:round;stroke-width:0.5545014142990112px"/><path d="M217.64,133.46h-4.18V137h4l.11-1.48h1.88v3.38h-9.78v-1.49l1.32-.25v-8.88l-1.32-.25v-1.5h9.77v3.39h-1.9l-.12-1.48h-3.95v3.11h4.18Z" style="fill:#5eafb5;stroke:#5eafb5;stroke-linecap:round;stroke-linejoin:round;stroke-width:0.5545014142990112px"/><path d="M238.39,126.53v3.3h-1.9l-.1-1.39h-2.28v8.72l1.33.25v1.49h-5.13v-1.49l1.32-.25v-8.72h-2.27l-.1,1.39h-1.89v-3.3Z" style="fill:#5eafb5;stroke:#5eafb5;stroke-linecap:round;stroke-linejoin:round;stroke-width:0.5545014142990112px"/><path d="M245.41,126.53V128l-1.32.25v6.46a2.38,2.38,0,0,0,.66,1.83,2.58,2.58,0,0,0,1.8.6,2.62,2.62,0,0,0,1.83-.6,2.35,2.35,0,0,0,.66-1.83v-6.46l-1.32-.25v-1.5h5.13V128l-1.33.25v6.46a4,4,0,0,1-1.37,3.21,5.5,5.5,0,0,1-3.6,1.13A5.44,5.44,0,0,1,243,138a4,4,0,0,1-1.36-3.21v-6.46l-1.32-.25v-1.5h5.12Z" style="fill:#5eafb5;stroke:#5eafb5;stroke-linecap:round;stroke-linejoin:round;stroke-width:0.5545014142990112px"/><path d="M265.7,126.53v3.3h-1.9l-.1-1.39h-2.28v8.72l1.33.25v1.49h-5.14v-1.49l1.33-.25v-8.72h-2.27l-.1,1.39h-1.89v-3.3Z" style="fill:#5eafb5;stroke:#5eafb5;stroke-linecap:round;stroke-linejoin:round;stroke-width:0.5545014142990112px"/><path d="M278.81,132.81a6.59,6.59,0,0,1-1.55,4.49,5.18,5.18,0,0,1-4.07,1.78,5.13,5.13,0,0,1-4.05-1.78,6.58,6.58,0,0,1-1.54-4.49v-.19a6.57,6.57,0,0,1,1.54-4.48,5.07,5.07,0,0,1,4-1.79,5.16,5.16,0,0,1,4.07,1.79,6.54,6.54,0,0,1,1.56,4.48Zm-2.47-.21a5.5,5.5,0,0,0-.8-3.11,2.65,2.65,0,0,0-2.36-1.2,2.57,2.57,0,0,0-2.33,1.19,5.59,5.59,0,0,0-.77,3.12v.21a5.64,5.64,0,0,0,.78,3.14,2.58,2.58,0,0,0,2.33,1.2,2.64,2.64,0,0,0,2.36-1.2,5.56,5.56,0,0,0,.79-3.14Z" style="fill:#5eafb5;stroke:#5eafb5;stroke-linecap:round;stroke-linejoin:round;stroke-width:0.5545014142990112px"/><path d="M286.6,126.53a5.14,5.14,0,0,1,3.3,1,3.24,3.24,0,0,1,1.2,2.67,2.71,2.71,0,0,1-.5,1.62,3.54,3.54,0,0,1-1.47,1.11A2.69,2.69,0,0,1,290.7,134a3.38,3.38,0,0,1,.48,1.86v.63a1.13,1.13,0,0,0,.16.63.74.74,0,0,0,.54.27l.3,0v1.5H290.9a2,2,0,0,1-1.71-.66,2.78,2.78,0,0,1-.49-1.69v-.7a2,2,0,0,0-.48-1.42,1.86,1.86,0,0,0-1.35-.54h-2v3.27l1.32.25v1.49H281v-1.49l1.32-.25v-8.88L281,128v-1.5h5.56ZM284.84,132h1.71a2.34,2.34,0,0,0,1.56-.44,1.59,1.59,0,0,0,.52-1.27,1.77,1.77,0,0,0-.52-1.33,2.1,2.1,0,0,0-1.51-.5h-1.76Z" style="fill:#5eafb5;stroke:#5eafb5;stroke-linecap:round;stroke-linejoin:round;stroke-width:0.5545014142990112px"/><path d="M294.23,128v-1.5h5.12V128l-1.33.25v8.88l1.33.25v1.49h-5.12v-1.49l1.32-.25v-8.88Z" style="fill:#5eafb5;stroke:#5eafb5;stroke-linecap:round;stroke-linejoin:round;stroke-width:0.5545014142990112px"/><path d="M314.17,126.53V128l-1.33.25V138.9h-2.47l-5-8.33h-.05v6.58l1.33.25v1.49h-5.12v-1.49l1.31-.25v-8.88l-1.31-.25v-1.5h3.79l5,8.32h.05v-6.57L309,128v-1.5h5.13Z" style="fill:#5eafb5;stroke:#5eafb5;stroke-linecap:round;stroke-linejoin:round;stroke-width:0.5545014142990112px"/><path d="M326.45,137.52a5.43,5.43,0,0,1-1.76,1.08,7.65,7.65,0,0,1-2.92.48,5.34,5.34,0,0,1-4.08-1.68,6.15,6.15,0,0,1-1.57-4.36v-.43a6.56,6.56,0,0,1,1.55-4.52,5.19,5.19,0,0,1,4.05-1.74,7.48,7.48,0,0,1,2.65.46,5.74,5.74,0,0,1,2,1.26v2.49h-1.84l-.35-1.66a2.4,2.4,0,0,0-.89-.46,4.17,4.17,0,0,0-1.28-.18,3,3,0,0,0-2.52,1.2,5,5,0,0,0-.91,3.13V133a4.75,4.75,0,0,0,.89,3,3,3,0,0,0,2.55,1.12,5,5,0,0,0,1.21-.12,2.78,2.78,0,0,0,.72-.3v-2.1l-1.76-.14v-1.74h4.25Z" style="fill:#5eafb5;stroke:#5eafb5;stroke-linecap:round;stroke-linejoin:round;stroke-width:0.5545014142990112px"/></g></g></svg>