<svg width="109" height="109" viewBox="0 0 109 109" fill="none" xmlns="http://www.w3.org/2000/svg">
<path d="M44.4652 73.4523L44.4584 73.4319L43.164 73.0095C37.0079 70.8336 31.607 66.9342 27.6043 61.7757C24.3675 57.6077 22.1435 52.7446 21.1076 47.5701C20.0717 42.3955 20.2523 37.0511 21.6351 31.9583C23.0179 26.8655 25.5651 22.1636 29.0758 18.2236C32.5865 14.2835 36.9646 11.2131 41.8649 9.25438C46.7651 7.29571 52.0535 6.50239 57.3127 6.93701C62.572 7.37163 67.6584 9.02229 72.1706 11.7588C76.6829 14.4953 80.4976 18.2428 83.3139 22.7057C86.1302 27.1686 87.871 32.2248 88.399 37.4755C88.5829 39.349 87.0365 40.875 85.1562 40.875C83.276 40.875 81.7704 39.3421 81.5456 37.4755C80.9376 32.6579 79.0534 28.0903 76.0878 24.2453C73.1222 20.4003 69.1831 17.4175 64.678 15.6056C60.1729 13.7938 55.2655 13.2186 50.4635 13.9397C45.6616 14.6607 41.1395 16.6519 37.3652 19.707C33.591 22.7621 30.7016 26.7702 28.9961 31.3167C27.2907 35.8631 26.831 40.7827 27.6648 45.5664C28.4985 50.3501 30.5954 54.8241 33.7383 58.5255C36.8813 62.2269 40.9563 65.0213 45.5416 66.6194C46.6982 64.5099 48.562 62.8761 50.8048 62.0056C53.0476 61.1352 55.5256 61.084 57.8024 61.8611C60.0792 62.6381 62.0089 64.1935 63.2517 66.2535C64.4944 68.3134 64.9705 70.7458 64.5962 73.1223C64.2218 75.4987 63.021 77.6669 61.2052 79.2451C59.3893 80.8232 57.0749 81.7101 54.6694 81.7495C52.264 81.789 49.9217 80.9784 48.0551 79.4607C46.1885 77.9429 44.9173 75.8153 44.4652 73.4523ZM39.0629 78.732C32.3908 76.008 26.5574 71.5684 22.1543 65.8632C21.0351 67.5417 20.4377 69.5138 20.4375 71.5312V74.9375C20.4375 88.3649 33.1087 102.187 54.5 102.187C75.8913 102.187 88.5625 88.3649 88.5625 74.9375V71.5312C88.5625 68.821 87.4859 66.2218 85.5695 64.3055C83.6531 62.3891 81.0539 61.3125 78.3438 61.3125H68.125C69.5539 63.2207 70.5662 65.4077 71.0965 67.7318C71.6268 70.056 71.6633 72.4656 71.2036 74.8048C70.7439 77.144 69.7982 79.3606 68.4278 81.3112C67.0574 83.2618 65.2927 84.903 63.248 86.1286C61.2032 87.3542 58.924 88.1369 56.5577 88.4261C54.1913 88.7152 51.7907 88.5043 49.511 87.8071C47.2313 87.1099 45.1234 85.9419 43.3236 84.3786C41.5238 82.8154 40.0723 80.8917 39.0629 78.732ZM74.9375 40.875C74.9375 34.6483 72.1512 29.0689 67.7571 25.322C65.6117 23.5048 63.1144 22.1497 60.4214 21.3417C57.7284 20.5336 54.8976 20.2899 52.1061 20.6258C49.3146 20.9617 46.6225 21.87 44.198 23.2938C41.7736 24.7176 39.669 26.6263 38.0159 28.9007C36.3628 31.175 35.1967 33.7659 34.5906 36.5114C33.9846 39.257 33.9515 42.098 34.4935 44.8569C35.0356 47.6158 36.141 50.2331 37.7407 52.5453C39.3405 54.8575 41.4001 56.8147 43.7907 58.2945C46.82 55.8387 50.6003 54.4968 54.5 54.4931C58.398 54.493 62.1781 55.83 65.2092 58.2809C68.1822 56.4518 70.6372 53.8918 72.3402 50.8448C74.0431 47.7979 74.9373 44.3655 74.9375 40.875Z" fill="#083B5C"/>
</svg>
