<svg width="108" height="108" viewBox="0 0 108 108" fill="none" xmlns="http://www.w3.org/2000/svg">
<path d="M45 99V67.5H36V40.5C36 38.025 36.882 35.907 38.646 34.146C40.41 32.385 42.528 31.503 45 31.5H63C65.475 31.5 67.5945 32.382 69.3585 34.146C71.1225 35.91 72.003 38.028 72 40.5V67.5H63V99H45ZM54 27C51.525 27 49.407 26.1195 47.646 24.3585C45.885 22.5975 45.003 20.478 45 18C44.997 15.522 45.879 13.404 47.646 11.646C49.413 9.88803 51.531 9.00603 54 9.00003C56.469 8.99403 58.5885 9.87603 60.3585 11.646C62.1285 13.416 63.009 15.534 63 18C62.991 20.466 62.1105 22.5855 60.3585 24.3585C58.6065 26.1315 56.487 27.012 54 27Z" fill="#083B5C"/>
</svg>
