<svg width="31" height="31" viewBox="0 0 31 31" fill="none" xmlns="http://www.w3.org/2000/svg">
<rect x="0.5" y="0.5" width="30" height="30" rx="15" fill="white"/>
<rect x="0.5" y="0.5" width="30" height="30" rx="15" stroke="white"/>
<path d="M13.9718 13.833L15.332 12.6381C15.7042 12.311 15.9659 11.8848 16.0836 11.4142C16.2013 10.9437 16.1695 10.4501 15.9924 9.99696L15.4112 8.51062C15.1945 7.95586 14.765 7.5012 14.2104 7.23943C13.6557 6.97766 13.0177 6.9285 12.4265 7.10199C10.2512 7.73952 8.57913 9.67638 9.0938 11.9769C9.43226 13.49 10.0794 15.3892 11.3071 17.4105C12.3358 19.1128 13.6301 20.6546 15.145 21.9824C16.9641 23.5683 19.5628 23.1719 21.2348 21.6788C21.6827 21.2784 21.9545 20.7294 21.9948 20.1438C22.0351 19.5581 21.8408 18.9797 21.4516 18.5264L20.3861 17.2866C20.065 16.9127 19.6346 16.6393 19.15 16.5015C18.6655 16.3637 18.1491 16.3677 17.667 16.5131L15.9075 17.0443C15.8394 16.9776 15.7621 16.8982 15.6755 16.8063C15.3136 16.4231 14.9936 16.0054 14.7203 15.5598C14.4542 15.1102 14.2367 14.6358 14.0713 14.1439C14.0359 14.0409 14.0027 13.9373 13.9718 13.833Z" fill="#304A55"/>
</svg>
