<svg width="31" height="31" viewBox="0 0 31 31" fill="none" xmlns="http://www.w3.org/2000/svg">
<rect x="0.5" y="0.5" width="30" height="30" rx="15" fill="white"/>
<rect x="0.5" y="0.5" width="30" height="30" rx="15" stroke="white"/>
<path d="M16.001 5C21.524 5 26.001 9.477 26.001 15C26.001 20.523 21.524 25 16.001 25C14.2337 25.003 12.4976 24.5353 10.971 23.645L6.00499 25L7.35699 20.032C6.46595 18.5049 5.99789 16.768 6.00099 15C6.00099 9.477 10.478 5 16.001 5ZM12.593 10.3L12.393 10.308C12.2637 10.3169 12.1373 10.3509 12.021 10.408C11.9126 10.4695 11.8136 10.5463 11.727 10.636C11.607 10.749 11.539 10.847 11.466 10.942C11.0961 11.4229 10.897 12.0133 10.9 12.62C10.902 13.11 11.03 13.587 11.23 14.033C11.639 14.935 12.312 15.89 13.2 16.775C13.414 16.988 13.624 17.202 13.85 17.401C14.9534 18.3724 16.2683 19.073 17.69 19.447L18.258 19.534C18.443 19.544 18.628 19.53 18.814 19.521C19.1052 19.5056 19.3895 19.4268 19.647 19.29C19.7778 19.2223 19.9056 19.1489 20.03 19.07C20.03 19.07 20.0723 19.0413 20.155 18.98C20.29 18.88 20.373 18.809 20.485 18.692C20.569 18.6053 20.639 18.5047 20.695 18.39C20.773 18.227 20.851 17.916 20.883 17.657C20.907 17.459 20.9 17.351 20.897 17.284C20.893 17.177 20.804 17.066 20.707 17.019L20.125 16.758C20.125 16.758 19.255 16.379 18.723 16.137C18.6673 16.1128 18.6077 16.0989 18.547 16.096C18.4786 16.0888 18.4094 16.0965 18.3442 16.1184C18.279 16.1403 18.2192 16.176 18.169 16.223C18.164 16.221 18.097 16.278 17.374 17.154C17.3325 17.2098 17.2753 17.2519 17.2098 17.2751C17.1443 17.2982 17.0733 17.3013 17.006 17.284C16.9408 17.2666 16.877 17.2446 16.815 17.218C16.691 17.166 16.648 17.146 16.563 17.11C15.9889 16.8599 15.4574 16.5215 14.988 16.107C14.862 15.997 14.745 15.877 14.625 15.761C14.2316 15.3842 13.8887 14.958 13.605 14.493L13.546 14.398C13.5043 14.3338 13.47 14.265 13.444 14.193C13.406 14.046 13.505 13.928 13.505 13.928C13.505 13.928 13.748 13.662 13.861 13.518C13.971 13.378 14.064 13.242 14.124 13.145C14.242 12.955 14.279 12.76 14.217 12.609C13.937 11.925 13.6477 11.2447 13.349 10.568C13.29 10.434 13.115 10.338 12.956 10.319C12.902 10.3123 12.848 10.307 12.794 10.303C12.6597 10.2953 12.5251 10.2966 12.391 10.307L12.593 10.3Z" fill="#304A55"/>
</svg>
